HIERARCHY
ROOT Hips
{
	OFFSET 0.000000 0.000000 0.000000
	CHANNELS 6 Xposition Yposition Zposition Zrotation Yrotation Xrotation 
	JOINT LHipJoint
	{
		OFFSET 0.000000 0.000000 0.000000
		CHANNELS 3 Zrotation Yrotation Xrotation
		JOINT LeftUpLeg
		{
			OFFSET 1.363060 -1.794630 0.839290
			CHANNELS 3 Zrotation Yrotation Xrotation
			JOINT LeftLeg
			{
				OFFSET 2.448110 -6.726130 0.000000
				CHANNELS 3 Zrotation Yrotation Xrotation
				JOINT LeftFoot
				{
					OFFSET 2.562200 -7.039590 0.000000
					CHANNELS 3 Zrotation Yrotation Xrotation
					JOINT LeftToeBase
					{
						OFFSET 0.157640 -0.433110 2.322550
						CHANNELS 3 Zrotation Yrotation Xrotation
						End Site
						{
							OFFSET 0.000000 0.000000 0.000000
						}
					}
				}
			}
		}
	}
	JOINT RHipJoint
	{
		OFFSET 0.000000 0.000000 0.000000
		CHANNELS 3 Zrotation Yrotation Xrotation
		JOINT RightUpLeg
		{
			OFFSET -1.305520 -1.794630 0.839290
			CHANNELS 3 Zrotation Yrotation Xrotation
			JOINT RightLeg
			{
				OFFSET -2.542530 -6.985550 0.000000
				CHANNELS 3 Zrotation Yrotation Xrotation
				JOINT RightFoot
				{
					OFFSET -2.568260 -7.056230 0.000000
					CHANNELS 3 Zrotation Yrotation Xrotation
					JOINT RightToeBase
					{
						OFFSET -0.164730 -0.452590 2.363150
						CHANNELS 3 Zrotation Yrotation Xrotation
						End Site
						{
							OFFSET 0.000000 0.000000 0.000000
						}
					}
				}
			}
		}
	}
	JOINT LowerBack
	{
		OFFSET 0.000000 0.000000 0.000000
		CHANNELS 3 Zrotation Yrotation Xrotation
		JOINT Spine
		{
			OFFSET 0.028270 2.035590 -0.193380
			CHANNELS 3 Zrotation Yrotation Xrotation
			JOINT Spine1
			{
				OFFSET 0.056720 2.048850 -0.042750
				CHANNELS 3 Zrotation Yrotation Xrotation
				JOINT Neck
				{
					OFFSET 0.000000 0.000000 0.000000
					CHANNELS 3 Zrotation Yrotation Xrotation
					JOINT Neck1
					{
						OFFSET -0.054170 1.746240 0.172020
						CHANNELS 3 Zrotation Yrotation Xrotation
						JOINT Head
						{
							OFFSET 0.104070 1.761360 -0.123970
							CHANNELS 3 Zrotation Yrotation Xrotation
							End Site
							{
								OFFSET 0.000000 0.000000 0.000000
							}
						}
					}
				}
				JOINT LeftShoulder
				{
					OFFSET 0.000000 0.000000 0.000000
					CHANNELS 3 Zrotation Yrotation Xrotation
					JOINT LeftArm
					{
						OFFSET 3.362410 1.200890 -0.311210
						CHANNELS 3 Zrotation Yrotation Xrotation
						JOINT LeftForeArm
						{
							OFFSET 4.983000 -0.000000 -0.000000
							CHANNELS 3 Zrotation Yrotation Xrotation
							JOINT LeftHand
							{
								OFFSET 3.483560 -0.000000 -0.000000
								CHANNELS 3 Zrotation Yrotation Xrotation
								JOINT LeftFingerBase
								{
									OFFSET 0.000000 0.000000 0.000000
									CHANNELS 3 Zrotation Yrotation Xrotation
									JOINT LeftHandIndex1
									{
										OFFSET 0.715260 -0.000000 -0.000000
										CHANNELS 3 Zrotation Yrotation Xrotation
										End Site
										{
											OFFSET 0.000000 0.000000 0.000000
										}
									}
								}
								JOINT LThumb
								{
									OFFSET 0.000000 0.000000 0.000000
									CHANNELS 3 Zrotation Yrotation Xrotation
									End Site
									{
										OFFSET 0.000000 0.000000 0.000000
									}
								}
							}
						}
					}
				}
				JOINT RightShoulder
				{
					OFFSET 0.000000 0.000000 0.000000
					CHANNELS 3 Zrotation Yrotation Xrotation
					JOINT RightArm
					{
						OFFSET -3.136600 1.374050 -0.404650
						CHANNELS 3 Zrotation Yrotation Xrotation
						JOINT RightForeArm
						{
							OFFSET -5.241900 -0.000000 -0.000000
							CHANNELS 3 Zrotation Yrotation Xrotation
							JOINT RightHand
							{
								OFFSET -3.444170 -0.000000 -0.000000
								CHANNELS 3 Zrotation Yrotation Xrotation
								JOINT RightFingerBase
								{
									OFFSET 0.000000 0.000000 0.000000
									CHANNELS 3 Zrotation Yrotation Xrotation
									JOINT RightHandIndex1
									{
										OFFSET -0.622530 -0.000000 -0.000000
										CHANNELS 3 Zrotation Yrotation Xrotation
										End Site
										{
											OFFSET 0.000000 0.000000 0.000000
										}
									}
								}
								JOINT RThumb
								{
									OFFSET 0.000000 0.000000 0.000000
									CHANNELS 3 Zrotation Yrotation Xrotation
									End Site
									{
										OFFSET 0.000000 0.000000 0.000000
									}
								}
							}
						}
					}
				}
			}
		}
	}
}
MOTION
Frames: 9
Frame Time: 0.008333
0.567599 18.628624 9.094321 -8.430883 4.381328 17.247465 3.207885 6.012630 3.177696 -12.699073 -60.697530 14.960180 -3.565736 -2.858749 -4.401194 -13.984575 49.398835 -46.491081 1.407200 7.503400 21.215500 -1.715173 -4.618900 3.221880 19.039117 31.431511 -4.337240 3.887817 0.114591 1.915960 11.716621 -33.937840 -13.209333 -0.580700 -4.879700 13.565800 7.554535 2.872900 2.158193 0.366951 4.865232 27.555329 -8.876284 1.056161 -28.164392 -17.056372 -13.986501 -27.947449 30.711279 -19.628329 14.868378 5.789300 -7.521200 8.434900 -2.180725 -8.453519 0.006401 -53.970933 -17.004217 85.823964 113.995233 -56.074743 -86.743190 -0.762627 -0.970691 -20.963403 17.460069 -18.687693 -5.885800 -7.125000 0.000000 0.000000 -6.231400 11.236600 4.927700 8.232605 9.766215 -3.503891 42.328261 68.497242 35.709094 -16.857811 12.304781 -8.068293 5.369700 5.298109 11.909563 -33.742002 -70.759670 35.564000 7.125000 0.000000 0.000000 141.643800 72.038700 154.270900 
0.579804 18.628308 9.093900 -8.404563 4.295426 17.267627 3.197122 5.994219 3.184862 -12.792248 -60.634716 14.984595 -3.574454 -2.871005 -4.402782 -13.788836 49.219173 -46.613220 1.465100 7.649400 21.654200 -1.718172 -4.630215 3.222233 18.940082 31.447868 -4.398576 3.883081 0.103194 1.928182 11.738252 -33.972472 -13.101131 -0.547900 -4.742100 13.174500 7.516468 2.883716 2.165857 0.353376 4.841113 27.452731 -8.796995 1.053133 -28.241255 -16.856041 -14.108325 -27.656991 30.712464 -19.720098 14.851576 5.702800 -7.533700 8.429600 -2.203520 -8.601534 0.161359 -53.833372 -17.004467 85.922576 113.911721 -56.064111 -86.685773 -0.771012 -0.988877 -20.699572 17.717913 -18.549209 -5.925500 -7.125000 0.000000 0.000000 -6.046100 11.371200 4.762600 8.269655 10.135229 -3.950418 41.433490 67.262454 34.232392 -16.725333 12.974319 -8.103196 5.120801 4.969171 11.711493 -34.141546 -70.845021 35.835800 7.125000 0.000000 0.000000 141.825900 72.229300 154.253000 
0.590114 18.626835 9.094321 -8.432643 4.178115 17.321301 3.164963 5.983144 3.177414 -12.737274 -60.532789 14.939866 -3.574218 -2.883469 -4.446877 -13.803979 49.235569 -46.603110 1.466000 7.651900 21.661600 -1.756251 -4.628255 3.196386 18.954039 31.509401 -4.432260 3.880167 0.094545 1.945610 11.721622 -33.930348 -13.047657 -0.546500 -4.736000 13.157000 7.696541 2.939203 2.212581 0.056314 4.968532 27.268789 -8.779126 1.088339 -28.285456 -16.708839 -14.293157 -27.438927 30.874102 -19.900289 14.810364 5.645300 -7.571800 8.474300 -2.191379 -8.797212 0.344727 -53.567488 -17.189062 86.112420 113.871787 -56.044815 -86.650659 -0.774877 -1.012621 -20.465828 18.076333 -18.320390 -5.965100 -7.125000 0.000000 0.000000 -5.790500 11.595400 4.532200 8.326100 10.493935 -4.523535 40.367261 65.810364 32.438539 -16.514513 13.711807 -7.997587 4.800181 4.684840 11.519916 -34.649158 -70.942571 36.173000 7.125000 0.000000 0.000000 142.095800 72.327600 154.372800 
0.599793 18.625362 9.096110 -8.414287 4.051032 17.403547 3.167620 5.956695 3.160201 -12.740242 -60.403837 14.860966 -3.575043 -2.904486 -4.495665 -13.903609 49.325857 -46.529678 1.440100 7.586800 21.465800 -1.762302 -4.627626 3.176016 18.862004 31.522606 -4.540470 3.871501 0.064769 1.993978 11.710058 -33.886245 -12.903208 -0.540700 -4.711400 13.087300 7.651507 2.976585 2.224017 0.082289 4.983018 27.082968 -8.756624 1.114136 -28.296065 -16.704043 -14.421977 -27.349899 30.988049 -20.017948 14.872866 5.611800 -7.582900 8.540500 -2.218347 -8.937776 0.482974 -53.393640 -17.334109 86.174635 113.713702 -56.070056 -86.522825 -0.792023 -1.021192 -20.207388 18.336233 -18.438587 -6.092400 -7.125000 0.000000 0.000000 -5.613800 11.452000 4.409200 8.351873 10.746854 -4.971408 39.478062 64.609877 31.222790 -16.351887 14.357127 -7.822810 4.478211 4.479700 11.231774 -33.739107 -70.916172 35.120000 7.125000 0.000000 0.000000 141.146900 72.410500 153.612200 
0.610735 18.624626 9.097162 -8.393167 3.984529 17.461759 3.206805 5.921755 3.136334 -12.863654 -60.320520 14.873378 -3.585653 -2.924970 -4.505642 -13.790860 49.220362 -46.593609 1.472800 7.668800 21.712500 -1.718721 -4.635357 3.170387 18.714359 31.518911 -4.658200 3.862060 0.024675 2.055003 11.712700 -33.874724 -12.791159 -0.527200 -4.653100 12.921900 7.430038 2.984119 2.275873 0.572209 4.851537 26.871295 -8.805974 1.090564 -28.302055 -16.882658 -14.507738 -27.247840 31.048871 -20.055652 14.958371 5.600600 -7.573200 8.588700 -2.303557 -9.034273 0.587663 -53.410583 -17.332872 86.073647 113.486078 -56.121529 -86.352997 -0.816455 -1.006877 -19.913115 18.143385 -18.862232 -6.176600 -7.125000 0.000000 0.000000 -5.754700 11.017800 4.572500 8.347924 10.923165 -5.315172 38.696698 63.532399 30.602489 -16.301547 15.051866 -7.635828 4.151357 4.344411 10.678790 -32.897546 -70.904311 34.140900 7.125000 0.000000 0.000000 140.277100 72.429200 152.955800 
0.631987 18.621154 9.090639 -8.632983 4.068397 17.390294 3.273823 5.917282 3.098115 -12.916463 -60.322584 15.075784 -3.591027 -2.916788 -4.471661 -13.815355 49.258779 -46.617797 1.475300 7.675000 21.731200 -1.668595 -4.630879 3.176881 18.934843 31.126822 -4.738652 3.857067 -0.004796 2.098571 11.602516 -33.617670 -12.475157 -0.508600 -4.571300 12.689800 7.676105 2.962234 2.580783 1.262174 4.735193 26.574493 -9.221226 0.943561 -28.322956 -17.204235 -14.617411 -27.050048 31.153538 -20.093780 14.968082 5.609300 -7.579700 8.613000 -2.403293 -9.158765 0.688330 -53.446538 -17.354944 86.009449 113.424830 -56.130023 -86.310242 -0.826581 -0.984954 -19.833817 17.574144 -19.227713 -6.106600 -7.125000 0.000000 0.000000 -6.148100 10.680800 4.931400 8.344214 11.022171 -5.626988 37.863103 62.406792 29.910609 -16.261315 15.786105 -7.399993 3.851821 4.208078 10.283876 -32.647069 -70.737453 33.729700 7.125000 0.000000 0.000000 139.857900 72.548200 152.548000 
0.662497 18.613368 9.078961 -9.080677 4.231587 17.237986 3.388580 5.928390 3.048289 -12.917775 -60.330919 15.383308 -3.588769 -2.894460 -4.419125 -14.133928 49.563997 -46.464963 1.401400 7.488600 21.171300 -1.601125 -4.616782 3.200019 19.403411 30.319289 -4.871771 3.849883 -0.030301 2.119292 11.396630 -33.141488 -11.796249 -0.467800 -4.386900 12.167900 8.160069 2.896253 2.997225 2.256533 4.557131 26.216718 -9.880676 0.686288 -28.327321 -17.545673 -14.662548 -26.785094 31.194568 -20.058462 15.003419 5.615400 -7.564600 8.598000 -2.537587 -9.251661 0.760082 -53.485934 -17.245210 85.978760 113.450803 -56.125113 -86.318525 -0.829071 -0.973351 -19.730657 17.293885 -19.399088 -6.065500 -7.125000 0.000000 0.000000 -6.342600 10.525700 5.109500 8.330839 11.031633 -5.790018 37.194981 61.468032 29.542914 -16.278453 16.424080 -7.182484 3.640876 4.060675 10.148216 -32.379443 -70.244133 33.306500 7.125000 0.000000 0.000000 139.273700 72.919100 151.806700 
0.672177 18.610843 9.080644 -9.068631 4.170511 17.345361 3.495010 5.866801 2.990234 -13.069475 -60.202258 15.348884 -3.604136 -2.927456 -4.431120 -14.067156 49.495979 -46.492223 1.418300 7.531700 21.300300 -1.488726 -4.630300 3.195286 19.147220 30.338598 -5.049236 3.840622 -0.066372 2.139911 11.382358 -33.091491 -11.687961 -0.467600 -4.386000 12.165300 7.599393 2.880012 3.029069 3.374217 4.245908 25.702617 -9.973441 0.604034 -28.220586 -17.856524 -14.551667 -26.354582 31.159678 -19.876948 15.061014 5.632600 -7.507700 8.499100 -2.727365 -9.214768 0.786003 -53.616978 -16.824601 85.986235 113.587086 -56.131805 -86.406366 -0.824626 -0.995888 -19.737718 17.718714 -19.125685 -6.120200 -7.125000 0.000000 0.000000 -6.046800 10.783400 4.836400 8.337627 11.028430 -5.756920 36.823515 60.815061 29.885686 -16.363541 16.916339 -7.055141 3.502481 3.946488 10.069166 -31.769489 -69.767467 32.587500 7.125000 0.000000 0.000000 138.362500 73.280000 150.817500 
0.669546 18.612106 9.088429 -8.771678 3.881778 17.509727 3.417632 5.841619 3.013665 -13.116168 -60.050279 15.090348 -3.615386 -2.957936 -4.491281 -13.769678 49.237643 -46.683522 1.501700 7.740400 21.928300 -1.531873 -4.627480 3.158557 18.714924 30.883235 -5.085461 3.835875 -0.084681 2.196888 11.468468 -33.257779 -12.027819 -0.500700 -4.536400 12.590700 7.379883 2.915890 2.842660 2.771818 4.349508 25.859310 -9.598473 0.770316 -28.207296 -17.270268 -14.658850 -26.802301 30.615187 -20.049494 15.218075 5.385800 -7.558000 8.566600 -2.673849 -9.296518 0.842020 -53.376830 -17.160947 86.175795 113.832199 -56.073987 -86.570933 -0.805452 -1.049323 -20.197532 18.568192 -18.474995 -6.181000 -7.125000 0.000000 0.000000 -5.446300 11.412100 4.280900 8.347729 11.162514 -6.053335 35.751148 59.822014 28.626402 -16.282096 17.504732 -6.839945 3.315409 3.834311 10.185713 -30.869319 -69.449763 31.564900 7.125000 0.000000 0.000000 137.209800 73.475300 149.769600 
